# xmcd
#
# Track frame offsets:
#	150
#	23486
#	41269
#	65122
#	79503
#	94654
#	118473
#	127948
#	148287
#	160183
#	179606
#
# Disc length: 2489 seconds
#
# Revision: 1
# Processed by: cddbd v1.5.1PL0 Copyright (c) Steve Scherf et al.
# Submitted via: CDex 1.50Beta5
#
DISCID=9309b70b
DTITLE=猫野こめっと - ねこべすと DISC 1
DYEAR=1900
DGENRE=
TTITLE0=悠久幻想曲
TTITLE1=小さな恋の魔法
TTITLE2=邪竜の夢
TTITLE3=With Your Smile
TTITLE4=みゅーつ☆
TTITLE5=逃避行
TTITLE6=In the rain
TTITLE7=There is such a thing s as forever
TTITLE8=わんわんわんわんわんっ☆
TTITLE9=猫の手も借りたい?!
TTITLE10=丸いヤツ
EXTD=
EXTT0=
EXTT1=
EXTT2=
EXTT3=
EXTT4=
EXTT5=
EXTT6=
EXTT7=
EXTT8=
EXTT9=
EXTT10=
PLAYORDER=
